<svg id="Layer_2" data-name="Layer 2" xmlns="http://www.w3.org/2000/svg" width="2.8in" height="3.1in" viewBox="0 0 204 225"><title>Artboard 1</title><path d="M80.1,29.3S43.6,53,63.1,106.8s41.1,48,41.1,48a30.4,30.4,0,0,0,28.6-16.4c9.9-18.3,14.9-69.3,4.2-91S115.4,22.2,80.1,29.3Z" fill="#f3cfb4"/><path d="M131.8,147.2a27,27,0,0,0,12.3-1.2,14.8,14.8,0,0,1-1.7-7.7s3,8.3,10.1,7.8c0,0-23.6,26.6-55.9,24.9,0,0-22.5.4-44.4-22.5,0,0,6.1-1.1,9.1-9.6,0,0,1.4,3.4-.7,9.5,0,0,1.8.6,6.2,0a20.5,20.5,0,0,0,14.6-9.7s20.1,11.3,35.8,0C117.1,138.7,122.9,146.4,131.8,147.2Z" fill="#ddd" stroke="#ddd" stroke-linecap="round" stroke-miterlimit="10"/><path d="M76.5,67.2l2-.2c10.9,0,8.6.3,14.6.3,3.1,0,3.1-.6,3-1.9s-12.3-.3-17.4-.1a6.2,6.2,0,0,0-4.2,1.5c-2.1,2.4-.3,1.3-.3,1.3Z" fill="#473628" stroke="#473628" stroke-miterlimit="10" stroke-width="0.25"/><path d="M131.3,67.2l-2-.2c-10.9,0-8.6.3-14.6.3-3.1,0-3.1-.6-3-1.9s12.3-.3,17.4-.1a6.2,6.2,0,0,1,4.2,1.5c2.1,2.4.3,1.3.3,1.3Z" fill="#473628" stroke="#473628" stroke-miterlimit="10" stroke-width="0.25"/><circle cx="87" cy="73.6" r="2.1" fill="#653829"/><circle cx="120.9" cy="73.6" r="2.1" fill="#653829"/><circle cx="100.9" cy="93.6" r="1.2" fill="#e2b393"/><circle cx="106.9" cy="93.6" r="1.2" fill="#e2b393"/><path d="M104.7,72.5a19,19,0,0,0,0,12.2" fill="none" stroke="#e9c2a7" stroke-miterlimit="10"/><path d="M114.1,104c-11.6,4.5-20.7,0-20.7,0s6.4-2.3,9-.7l1.3.8a8.4,8.4,0,0,1,5.8-1.2A37.7,37.7,0,0,1,114.1,104Z" fill="#c56c60" stroke="#c56c60" stroke-miterlimit="10" stroke-width="0.5"/><path d="M112.4,105.3c-9.7,9.3-17.7,0-17.7,0L93.4,104a24,24,0,0,0,9.8,2,38,38,0,0,0,10.8-2Z" fill="#c56c60" stroke="#c56c60" stroke-linejoin="round" stroke-width="0.5"/><path d="M88.1,118.1s5.9,4.9,11.7,5.9c0,0,7.1,1.2,11.5-1.1v1.7s1.5,2.6,2.8,5.5l-2.5-1.2s-14.1,8.9-24.6-2.3" fill="#e9c2a7"/><path d="M63.1,73.6a18.7,18.7,0,0,0,5.7,11.1" fill="none" stroke="#e2b393" stroke-miterlimit="10"/><path d="M190.1,188.8a88.9,88.9,0,0,0-12.3-25.7c-8.4-11.9-23.3-16.4-25.4-17-52.3,51.9-100.3,2.3-100.3,2.3s-16.6,4.2-25.6,17a88.9,88.9,0,0,0-12.3,25.7S103.7,237.7,190.1,188.8Z" fill="#d49000"/><path d="M98.6,144.4,85.1,158a4.1,4.1,0,0,1-5.4.4l-13-9.9s8.8-.5,14.6-9.7c0,0,20.2,11.4,35.8,0,0,0,5.7,7.7,14.7,8.5l-12.4,10.9a4.1,4.1,0,0,1-5.4,0Z" fill="#c7c5c4" stroke="#c7c5c4" stroke-linecap="round" stroke-miterlimit="10"/><circle cx="98.7" cy="153.5" r="2.2" fill="#c7c5c4"/><circle cx="98.7" cy="164.7" r="2.2" fill="#c7c5c4"/><path d="M113.1,73.9s5.3-5.3,15-1c0,0,2,.8,2.7-.3" fill="none" stroke="#231f20" stroke-miterlimit="10"/><path d="M94.7,73.9s-5.3-5.3-15-1c0,0-2,.8-2.7-.3" fill="none" stroke="#231f20" stroke-miterlimit="10"/><path d="M81.3,72.2a4.1,4.1,0,0,1-2.7-.7" fill="none" stroke="#231f20" stroke-miterlimit="10"/><path d="M126.5,72.2a4.1,4.1,0,0,0,2.7-.7" fill="none" stroke="#231f20" stroke-miterlimit="10"/><path d="M84.3,21.1s18-16.5,45-1.7c0,0,20.5,13,22.3,41.5s2.8,84.5,2.8,84.5-7,4-12-7c0,0,0,5.2,1.8,7.7,0,0-27,8.6-32.7-23.2,0,0,22.9-11.2,22.5-42.9,0,0,1.3-11.6-5.7-14.8s-42-13-45.2-27.7l-9.7,14s-6.5,11.8-2.5,24.8c0,0-4-10.2-9.2-7s-1.7,9,1.5,12.8,4,10.5,8,10c0,0,3.5,17.7,17.8,27.2,0,0-3,32.6-28,29.3,0,0,2.3-5.5.8-9.5,0,0-4.5,11.7-12.7,9.7l1.3-77.5s1.5-24.2,5.5-34.5S72.1,14.9,84.3,21.1Z" fill="#473628" stroke="#473628" stroke-miterlimit="10"/><path d="M101.4,29.3S107,41,118.8,47.8s14,10.8,14,10.8" fill="none" stroke="#413428" stroke-miterlimit="10"/><path d="M73.7,29.9s-14,7.5-14,28" fill="none" stroke="#413428" stroke-miterlimit="10"/><path d="M133.8,75.7s-.7,24.3,6.5,33.8" fill="none" stroke="#413428" stroke-miterlimit="10"/><path d="M127.8,106s-2.3,17.8,5,26" fill="none" stroke="#413428" stroke-miterlimit="10"/><path d="M71.9,96s2.7,20.6-5.2,34" fill="none" stroke="#413428" stroke-miterlimit="10"/><path d="M111.6,25.4s9,13.2,18.6,17.3" fill="none" stroke="#413428" stroke-miterlimit="10"/><circle cx="85.3" cy="89.6" r="6.4" fill="#f9ccb3"/><circle cx="121.4" cy="89.6" r="6.4" fill="#f9ccb3"/><path d="M94.6,104.4a26.3,26.3,0,0,0,18.2,0" fill="#c56c60" stroke="#b76158" stroke-miterlimit="10" stroke-width="0.5"/><path d="M41.6,153.2S59,179,101.7,179c45,0,59.9-29,59.9-29" fill="none" stroke="#d18a00" stroke-miterlimit="10"/></svg>