<svg id="Layer_1" data-name="Layer 1" xmlns="http://www.w3.org/2000/svg" width="3.3in" height="1.6in" viewBox="0 0 234.9 115.8"><title>wordmark</title><path d="M18,86.5H11.8v14a3,3,0,0,0,.8,2.2,3,3,0,0,0,2.2.8l1.6-.2,1.6-.5.2,2.5-1.8.5-1.8.2a6.7,6.7,0,0,1-2.6-.4,4.5,4.5,0,0,1-1.7-1.2,4.7,4.7,0,0,1-1-1.7,7.4,7.4,0,0,1-.3-2.2v-14H4.4V83.9H9V77.7h2.8v6.2H18Z" fill="#231f20"/><path d="M35.9,90q0-.6,0-1.5t-.1-1.7-.1-1.7,0-1.2h2.8q0,1.2.1,2.3a7.3,7.3,0,0,0,.1,1.4,9.6,9.6,0,0,1,2.8-3.1,6.8,6.8,0,0,1,4.1-1.2h.8l.8.2-.3,2.8-1.1-.2a7.8,7.8,0,0,0-3.1.6,5.9,5.9,0,0,0-2.2,1.6,6.7,6.7,0,0,0-1.3,2.4,10.1,10.1,0,0,0-.4,3v11.8H35.9Z" fill="#231f20"/><path d="M64.1,75.4a2.1,2.1,0,1,1,.6,1.5A2,2,0,0,1,64.1,75.4Zm.7,8.5h2.8v21.5H64.8Z" fill="#231f20"/><path d="M105.2,96.4q0,1.6,0,2.8t.1,2.3.1,2,.2,1.9H103a20.2,20.2,0,0,1-.3-3.5h-.1a7.9,7.9,0,0,1-3,3.1,9.4,9.4,0,0,1-4.5,1,10.9,10.9,0,0,1-2.8-.3,7.2,7.2,0,0,1-2.4-1.1,5.8,5.8,0,0,1-2.4-4.9,5.8,5.8,0,0,1,1.3-3.9,7.9,7.9,0,0,1,3.1-2.2,14.7,14.7,0,0,1,3.9-.9l3.7-.2h3.3V91.1a4.6,4.6,0,0,0-1.7-4,7.4,7.4,0,0,0-4.3-1.2A9.8,9.8,0,0,0,90,88.3l-1.6-1.9a10,10,0,0,1,3.8-2.3,13.7,13.7,0,0,1,4.4-.8,9.8,9.8,0,0,1,6.2,1.8q2.3,1.8,2.3,5.9Zm-5.6-1.8-3.4.2a12,12,0,0,0-3,.8A5.6,5.6,0,0,0,91,97.2a3.8,3.8,0,0,0-.3,4.1,3.9,3.9,0,0,0,1.1,1.3,5.4,5.4,0,0,0,1.6.7l1.7.3a9,9,0,0,0,3.7-.7,6.3,6.3,0,0,0,2.3-1.7,5.9,5.9,0,0,0,1.2-2.4,11.2,11.2,0,0,0,.3-2.7V94.7Z" fill="#231f20"/><path d="M125.5,90q0-.6,0-1.5t-.1-1.7-.1-1.7,0-1.2h2.8q0,1.2.1,2.3a7.3,7.3,0,0,0,.1,1.4h.1a7.6,7.6,0,0,1,2.8-3.1,8.2,8.2,0,0,1,4.6-1.3,9.2,9.2,0,0,1,4.1.8,6.6,6.6,0,0,1,2.5,2.1,7.8,7.8,0,0,1,1.3,3,16.8,16.8,0,0,1,.3,3.5v12.8h-2.8V92.8a13.8,13.8,0,0,0-.2-2.5,6.8,6.8,0,0,0-.8-2.2,4.3,4.3,0,0,0-1.6-1.6,5.6,5.6,0,0,0-2.7-.6,8,8,0,0,0-2.9.5,6.3,6.3,0,0,0-2.4,1.6,7.9,7.9,0,0,0-1.6,2.8,11.7,11.7,0,0,0-.6,3.9v10.8h-2.8Z" fill="#231f20"/><path d="M174.9,86.5h-6.2v14a3,3,0,0,0,.8,2.2,3,3,0,0,0,2.2.8l1.6-.2,1.6-.5.2,2.5-1.8.5-1.8.2a6.7,6.7,0,0,1-2.6-.4,4.5,4.5,0,0,1-1.7-1.2,4.7,4.7,0,0,1-1-1.7,7.4,7.4,0,0,1-.3-2.2v-14h-4.7V83.9H166V77.7h2.8v6.2h6.2Z" fill="#231f20"/><path d="M192.6,75.4a2.1,2.1,0,1,1,.6,1.5A2,2,0,0,1,192.6,75.4Zm.7,8.5h2.8v21.5h-2.8Z" fill="#231f20"/><path d="M217,100a6,6,0,0,0,2.6,2.6,7.7,7.7,0,0,0,3.6.9l1.8-.3a5.4,5.4,0,0,0,1.6-.8,4.3,4.3,0,0,0,1.1-1.2,3.1,3.1,0,0,0,.4-1.7,2.7,2.7,0,0,0-1-2.2,7.1,7.1,0,0,0-2.4-1.2l-3.1-.7a13.1,13.1,0,0,1-3.1-.9,6.6,6.6,0,0,1-2.4-1.7,4.7,4.7,0,0,1-1-3.2,5.5,5.5,0,0,1,.7-2.8,6,6,0,0,1,1.7-1.9,7.4,7.4,0,0,1,2.4-1.1,9.6,9.6,0,0,1,2.7-.4,10.1,10.1,0,0,1,4.6,1,6.8,6.8,0,0,1,3,3.1l-2.5,1.5a5.9,5.9,0,0,0-2-2.3,5.6,5.6,0,0,0-3.1-.8l-1.6.2-1.5.7a3.8,3.8,0,0,0-1.1,1.1,2.6,2.6,0,0,0-.4,1.5,2.5,2.5,0,0,0,1,2.1,7.3,7.3,0,0,0,2.4,1.1l3.1.7a12.5,12.5,0,0,1,3.1.9,6.3,6.3,0,0,1,2.4,1.8,5.3,5.3,0,0,1,1,3.4,6.4,6.4,0,0,1-.6,2.9,6,6,0,0,1-1.7,2.1,7.7,7.7,0,0,1-2.5,1.3,10.2,10.2,0,0,1-2.9.4,12,12,0,0,1-5.1-1.1,7.7,7.7,0,0,1-3.6-3.3Z" fill="#231f20"/><path d="M73.4,42.9a15.3,15.3,0,0,1-1.2,6.5,10.2,10.2,0,0,1-2.9,3.8A9.7,9.7,0,0,1,65.6,55a16.2,16.2,0,0,1-3.6.5,16.8,16.8,0,0,1-3.2-.3,15.2,15.2,0,0,1-3-.9,12.2,12.2,0,0,1-2.5-1.4,10,10,0,0,1-2-1.9l2.2-2.1A8.9,8.9,0,0,0,57.2,52a11.7,11.7,0,0,0,4.8,1,10.2,10.2,0,0,0,3.6-.6A7.2,7.2,0,0,0,68,50.9a7,7,0,0,0,1.5-2,10.4,10.4,0,0,0,.8-2.2,11.6,11.6,0,0,0,.3-2.1q0-1,0-1.6v-3h-.1a8.6,8.6,0,0,1-3.3,3.1,10.1,10.1,0,0,1-4.9,1.1,11.7,11.7,0,0,1-4.5-.9,11.4,11.4,0,0,1-6.1-5.9,10.6,10.6,0,0,1,0-8.6,11.2,11.2,0,0,1,2.5-3.5A12,12,0,0,1,57.9,23a11.4,11.4,0,0,1,4.5-.9,10.1,10.1,0,0,1,4.9,1.1,8.6,8.6,0,0,1,3.3,3.1h.1V22.7h2.8Zm-2.7-9.7a8.3,8.3,0,0,0-.7-3.3,8.5,8.5,0,0,0-4.5-4.5,8.6,8.6,0,0,0-6.7,0,8.5,8.5,0,0,0-4.5,4.5,8.6,8.6,0,0,0,0,6.7,8.5,8.5,0,0,0,4.5,4.5,8.6,8.6,0,0,0,6.7,0A8.5,8.5,0,0,0,70,36.5,8.3,8.3,0,0,0,70.7,33.2Z" fill="#231f20"/><path d="M112.2,40.2a9.4,9.4,0,0,1-4,3.5,12.8,12.8,0,0,1-5.3,1.1,11.5,11.5,0,0,1-4.5-.8,10.1,10.1,0,0,1-3.5-2.4A10.3,10.3,0,0,1,92.7,38a13.1,13.1,0,0,1-.8-4.6,12.3,12.3,0,0,1,.8-4.5A10.7,10.7,0,0,1,95,25.4,10.5,10.5,0,0,1,98.4,23a10.6,10.6,0,0,1,4.3-.9,10.4,10.4,0,0,1,4.4.9,9.5,9.5,0,0,1,3.2,2.3,9.7,9.7,0,0,1,1.9,3.2,10.8,10.8,0,0,1,.7,3.7v2H94.7a9.5,9.5,0,0,0,.3,2.3,8,8,0,0,0,1.3,2.7,8.1,8.1,0,0,0,2.5,2.2,7.8,7.8,0,0,0,4,.9,9,9,0,0,0,4.1-1,7.5,7.5,0,0,0,3.1-2.8ZM110,31.7a6.4,6.4,0,0,0-.6-2.7,7.2,7.2,0,0,0-1.6-2.2,7.5,7.5,0,0,0-2.4-1.5,7.7,7.7,0,0,0-2.9-.6,7.1,7.1,0,0,0-3.8.9,8.3,8.3,0,0,0-2.4,2.1,8.5,8.5,0,0,0-1.3,2.4,6.2,6.2,0,0,0-.4,1.6Z" fill="#231f20"/><path d="M132,28.8q0-.6,0-1.5t-.1-1.7-.1-1.7,0-1.2h2.8q0,1.2.1,2.3a7.3,7.3,0,0,0,.1,1.4h.1a7.6,7.6,0,0,1,2.8-3.1,8.2,8.2,0,0,1,4.6-1.3,9.2,9.2,0,0,1,4.1.8,6.6,6.6,0,0,1,2.5,2.1,7.8,7.8,0,0,1,1.3,3,16.9,16.9,0,0,1,.3,3.5V44.3h-2.8V31.6a13.7,13.7,0,0,0-.2-2.5,6.8,6.8,0,0,0-.8-2.2,4.3,4.3,0,0,0-1.6-1.6,5.6,5.6,0,0,0-2.7-.6,8,8,0,0,0-2.9.5,6.3,6.3,0,0,0-2.4,1.6,7.9,7.9,0,0,0-1.6,2.8,11.7,11.7,0,0,0-.6,3.9V44.3H132Z" fill="#231f20"/><path d="M170.6,14.2a2.1,2.1,0,1,1,.6,1.5A2,2,0,0,1,170.6,14.2Zm.7,8.5h2.8V44.3h-2.8Z" fill="#231f20"/><rect x="87.7" y="10.6" width="2.5" height="8.1" transform="translate(9.3 56.9) rotate(-37.3)" fill="#231f20"/><rect x="101.3" y="6.3" width="2.5" height="8.44" transform="translate(-0.3 3.7) rotate(-2.1)" fill="#231f20"/><rect x="111.2" y="11.7" width="9.4" height="2.45" transform="matrix(0.52, -0.85, 0.85, 0.52, 44.61, 105.25)" fill="#231f20"/><circle cx="172.9" cy="14.2" r="2.3" transform="translate(120.4 179.6) rotate(-77.1)" fill="#fff"/><path d="M172.9,17.8h-.8a3.6,3.6,0,1,1,.8.1Zm0-4.7a1.1,1.1,0,1,0,.2,0Z" fill="#231f20"/></svg>